
<svg width="135px" height="18px" viewBox="1135 6441 135 18" version="1.1" xmlns="http://www.w3.org/2000/svg" xmlns:xlink="http://www.w3.org/1999/xlink">
    <!-- Generator: Sketch 39.1 (31720) - http://www.bohemiancoding.com/sketch -->
    <desc>Created with Sketch.</desc>
    <defs>
        <polygon id="path-1" points="10.8593892 0.498413793 0.309458367 0.498413793 0.309458367 11.9415913 10.8593892 11.9415913 10.8593892 0.498413793"></polygon>
        <polygon id="path-3" points="2.79511409 2.60689655 2.79511409 0.496551724 0.133286393 0.496551724 0.133286393 2.60689655 2.79511409 2.60689655"></polygon>
    </defs>
    <g id="Page-1" stroke="none" stroke-width="1" fill="none" fill-rule="evenodd" transform="translate(1136.000000, 6441.000000)">
        <path d="M17.4673273,10.2397034 C19.0769168,8.87418621 18.9531022,4.21901379 17.1577908,5.4603931 C14.6814993,7.19832414 12.1433004,9.0603931 10.4718036,9.99142759 C7.93360479,11.4810828 5.02396222,12.7224621 2.8572071,13.4672897 C2.23813422,13.6534966 2.11431964,13.6534966 2.11431964,13.7776345 C2.11431964,13.9017724 2.3000415,13.9017724 2.8572071,13.8397034 C6.44782986,13.6534966 10.7194328,13.0328069 14.3719628,11.7293586 C16.0434596,11.2328069 16.6006252,10.9224621 17.4673273,10.2397034" id="Fill-1" fill="#FFFFFF"></path>
        <g id="Group-5" transform="translate(0.000000, 11.294876)" fill="#FFFFFF">
            <path d="M18.3340293,4.90344828 C21.05795,3.72413793 22.2341885,-0.744827586 19.9436188,0.124137931 C16.7244398,1.30344828 12.3290223,2.35862069 10.2860818,2.73103448 C6.81927359,3.35172414 3.10483626,3.4137931 0.690451993,3.35172414 C0.31900826,3.35172414 0.0713791041,3.28965517 0.0094718152,3.4137931 C-0.0524354737,3.53793103 0.195193682,3.6 0.566637415,3.7862069 C3.53818728,5.15172414 8.49077039,6.02068966 13.8147972,5.77241379 C16.2291815,5.5862069 17.40542,5.27586207 18.3340293,4.90344828" id="Fill-3"></path>
        </g>
        <g id="Group-8" transform="translate(3.714437, 0.122462)">
            <mask id="mask-2" fill="white">
                <use xlink:href="#path-1"></use>
            </mask>
            <g id="Clip-7"></g>
            <path d="M10.5337109,5.15172414 C11.6480421,2.91724138 9.6051016,-0.55862069 8.86221413,0.806896552 C7.74788293,2.85517241 5.58112782,5.71034483 4.77633306,6.76551724 C3.47627999,8.44137931 2.05241235,10.1172414 0.814266571,11.3586207 C0.504730126,11.6689655 0.257100971,11.8551724 0.31900826,11.9172414 C0.380915549,11.9793103 0.566637415,11.9172414 0.87617386,11.7931034 C3.47627999,10.6137931 6.32401528,9.06206897 8.49077039,7.32413793 C9.85273075,6.33103448 10.1622672,5.95862069 10.5337109,5.15172414" id="Fill-6" fill="#FFFFFF" mask="url(#mask-2)"></path>
        </g>
        <path d="M85.0081795,13.7776345 C84.3271993,14.4603931 83.5843118,15.0190138 82.8414244,15.3914276 C82.0985369,15.7638414 81.2318349,15.9500483 80.2413182,15.9500483 C79.4365235,15.9500483 78.6317287,15.7638414 77.9507485,15.4534966 C77.2697684,15.1431517 76.6506955,14.708669 76.0935299,14.1500483 C75.7220861,13.7776345 75.4125497,13.3431517 75.1649205,12.8466 C75.1030133,12.6603931 74.9791987,12.4741862 74.9172914,12.2879793 C74.6077549,11.5431517 74.4220331,10.6741862 74.4220331,9.80522069 L74.4220331,9.74315172 C74.4220331,8.87418621 74.6077549,8.00522069 74.9172914,7.2603931 C74.9791987,7.07418621 75.1030133,6.88797931 75.1649205,6.70177241 C75.4125497,6.20522069 75.7220861,5.77073793 76.0935299,5.39832414 C76.5887882,4.83970345 77.2078611,4.40522069 77.9507485,4.09487586 C78.6317287,3.78453103 79.4365235,3.6603931 80.2413182,3.6603931 C80.7365765,3.6603931 81.2318349,3.72246207 81.6651859,3.78453103 C82.0985369,3.90866897 82.5318879,4.0328069 82.9033317,4.21901379 C83.2747754,4.40522069 83.6462191,4.59142759 83.9557556,4.83970345 C84.265292,5.08797931 84.6367357,5.33625517 84.9462722,5.6466 L85.1319941,5.8328069 L86.3082325,4.65349655 L86.1225107,4.46728966 C85.7510669,4.09487586 85.3796232,3.78453103 84.9462722,3.53625517 C84.5129212,3.22591034 84.0795701,2.97763448 83.6462191,2.79142759 C83.1509608,2.60522069 82.6557025,2.41901379 82.1604442,2.29487586 C81.6032786,2.17073793 80.9842057,2.10866897 80.3651328,2.10866897 C79.3127089,2.10866897 78.260285,2.29487586 77.3316757,2.72935862 C76.4030663,3.10177241 75.5982716,3.6603931 74.9791987,4.34315172 C74.2982185,5.02591034 73.8029602,5.8328069 73.4315165,6.76384138 C73.0600727,7.69487586 72.8743509,8.68797931 72.8743509,9.68108276 L72.8743509,9.74315172 C72.8743509,10.7983241 73.0600727,11.7914276 73.4315165,12.7224621 C73.8029602,13.6534966 74.2982185,14.4603931 74.9791987,15.1431517 C75.6601789,15.8259103 76.4649736,16.384531 77.3316757,16.7569448 C78.260285,17.1293586 79.2508016,17.3776345 80.3032255,17.3776345 C80.9842057,17.3776345 81.5413713,17.3155655 82.0985369,17.1914276 C82.6557025,17.0672897 83.1509608,16.8810828 83.6462191,16.6948759 C84.1414774,16.4466 84.5748285,16.1983241 85.0081795,15.8879793 C85.4415305,15.5776345 85.8129742,15.2052207 86.2463253,14.8948759 L86.4320471,14.708669 L85.3177159,13.6534966 L85.0081795,13.7776345 Z M93.9847364,6.14315172 L93.6751999,6.14315172 C93.1180343,6.14315172 92.5608687,6.20522069 92.0656104,6.32935862 C91.5703521,6.45349655 91.0750938,6.70177241 90.7036501,7.01211724 C90.270299,7.32246207 89.8988553,7.6328069 89.5893189,8.06728966 C89.4655043,8.19142759 89.403597,8.31556552 89.3416897,8.43970345 L89.3416897,6.32935862 L87.7321002,6.32935862 L87.7321002,17.1914276 L89.3416897,17.1914276 L89.3416897,12.6603931 C89.3416897,11.8534966 89.4655043,11.1707379 89.7131334,10.5500483 C89.9607626,9.92935862 90.270299,9.4328069 90.6417428,8.99832414 C91.0131865,8.56384138 91.5084448,8.25349655 92.0037031,8.06728966 C92.4989614,7.88108276 93.056127,7.75694483 93.6132926,7.75694483 L93.9847364,7.75694483 L93.9847364,6.14315172 L93.9847364,6.14315172 Z M102.961293,7.69487586 C102.527942,7.19832414 101.970777,6.76384138 101.351704,6.45349655 C100.732631,6.14315172 99.9897434,6.01901379 99.2468559,6.01901379 C98.5039685,6.01901379 97.761081,6.14315172 97.1420081,6.45349655 C96.5229352,6.76384138 95.9657696,7.13625517 95.4705113,7.69487586 C94.975253,8.19142759 94.6038093,8.81211724 94.3561801,9.49487586 C94.1085509,10.1776345 93.9847364,10.9224621 93.9847364,11.6672897 L93.9847364,11.7293586 C93.9847364,12.5983241 94.1085509,13.3431517 94.4180874,14.0259103 C94.7276238,14.708669 95.0990676,15.3293586 95.5943259,15.8259103 C96.0895842,16.3224621 96.7086571,16.6948759 97.32773,17.0052207 C98.0087101,17.2534966 98.6896903,17.4397034 99.4325778,17.4397034 C100.485002,17.4397034 101.351704,17.2534966 102.094591,16.8190138 C102.775571,16.4466 103.456552,15.9500483 104.013717,15.3293586 L104.199439,15.1431517 L103.085108,14.1500483 L102.899386,14.3362552 C102.466035,14.7707379 101.970777,15.1431517 101.475518,15.4534966 C100.98026,15.7638414 100.29928,15.8879793 99.4944851,15.8879793 C98.9992268,15.8879793 98.5658757,15.8259103 98.0706174,15.6397034 C97.6372664,15.4534966 97.2658227,15.2052207 96.8943789,14.8948759 C96.5229352,14.584531 96.2753061,14.1500483 96.0276769,13.7155655 C95.841955,13.3431517 95.7181405,12.908669 95.6562332,12.4121172 L104.323254,12.4121172 L104.385161,12.1638414 L104.385161,11.9155655 L104.385161,11.7293586 C104.385161,10.9224621 104.261346,10.1776345 104.013717,9.49487586 C103.766088,8.81211724 103.456552,8.19142759 102.961293,7.69487586 L102.961293,7.69487586 Z M95.6562332,10.984531 C95.7181405,10.5500483 95.841955,10.1776345 95.9657696,9.80522069 C96.1514915,9.37073793 96.4610279,8.93625517 96.7705644,8.62591034 C97.0801008,8.31556552 97.4515445,8.06728966 97.8848956,7.88108276 C98.3182466,7.69487586 98.7515976,7.57073793 99.2468559,7.57073793 C99.8040215,7.57073793 100.29928,7.69487586 100.732631,7.88108276 C101.165982,8.06728966 101.475518,8.37763448 101.785055,8.68797931 C102.094591,9.0603931 102.280313,9.4328069 102.466035,9.86728966 C102.58985,10.2397034 102.713664,10.6121172 102.713664,10.984531 L95.6562332,10.984531 L95.6562332,10.984531 Z M114.847493,7.94315172 C114.785585,7.81901379 114.661771,7.75694483 114.599864,7.6328069 C114.290327,7.32246207 113.980791,7.07418621 113.609347,6.82591034 C113.237903,6.57763448 112.804552,6.39142759 112.371201,6.26728966 C111.875943,6.14315172 111.380685,6.08108276 110.823519,6.08108276 C110.142539,6.08108276 109.461559,6.20522069 108.842486,6.45349655 C108.223413,6.70177241 107.60434,7.07418621 107.109082,7.57073793 C106.613823,8.06728966 106.180472,8.68797931 105.870936,9.37073793 C105.561399,10.0534966 105.375678,10.8603931 105.375678,11.7293586 L105.375678,11.7914276 C105.375678,12.6603931 105.561399,13.4672897 105.870936,14.1500483 C106.180472,14.8328069 106.613823,15.4534966 107.109082,15.9500483 C107.60434,16.4466 108.223413,16.8190138 108.842486,17.0672897 C109.461559,17.3155655 110.142539,17.4397034 110.823519,17.4397034 C111.380685,17.4397034 111.875943,17.3776345 112.371201,17.1914276 C112.804552,17.0672897 113.237903,16.8190138 113.609347,16.6328069 C113.980791,16.384531 114.290327,16.0741862 114.599864,15.7638414 C114.723678,15.6397034 114.785585,15.5776345 114.847493,15.4534966 L114.847493,17.1914276 L116.457082,17.1914276 L116.457082,1.8603931 L114.847493,1.8603931 L114.847493,7.94315172 Z M114.9094,11.7293586 C114.9094,12.3500483 114.785585,12.908669 114.599864,13.4052207 C114.352234,13.9017724 114.042698,14.3362552 113.671254,14.708669 C113.299811,15.0810828 112.866459,15.3293586 112.371201,15.5776345 C111.442592,15.9500483 110.328261,15.9500483 109.399651,15.5776345 C108.904393,15.3914276 108.532949,15.0810828 108.161506,14.7707379 C107.790062,14.3983241 107.542433,13.9638414 107.294803,13.4672897 C107.109082,12.9707379 106.985267,12.3500483 106.985267,11.7293586 L106.985267,11.6672897 C106.985267,10.984531 107.109082,10.4259103 107.294803,9.92935862 C107.480525,9.4328069 107.790062,8.99832414 108.099598,8.62591034 C108.471042,8.25349655 108.842486,8.00522069 109.337744,7.81901379 C109.833002,7.6328069 110.328261,7.50866897 110.823519,7.50866897 C111.318777,7.50866897 111.814036,7.6328069 112.309294,7.81901379 C112.804552,8.00522069 113.237903,8.31556552 113.609347,8.68797931 C113.980791,9.0603931 114.290327,9.49487586 114.537956,9.99142759 C114.785585,10.5500483 114.9094,11.108669 114.9094,11.7293586 L114.9094,11.7293586 Z M118.871467,17.1914276 L120.481056,17.1914276 L120.481056,6.26728966 L118.871467,6.26728966 L118.871467,17.1914276 Z M118.747652,4.15694483 L120.604871,4.15694483 L120.604871,2.2328069 L118.747652,2.2328069 L118.747652,4.15694483 Z M129.024262,7.75694483 L129.024262,6.26728966 L125.309825,6.26728966 L125.309825,2.97763448 L123.700235,2.97763448 L123.700235,6.26728966 L122.152553,6.26728966 L122.152553,7.75694483 L123.700235,7.75694483 L123.700235,14.2121172 C123.700235,14.708669 123.762142,15.2052207 123.947864,15.5776345 C124.133586,15.9500483 124.381215,16.3224621 124.628844,16.5707379 C124.938381,16.8190138 125.309825,17.0052207 125.681268,17.1293586 C126.052712,17.2534966 126.486063,17.3155655 126.919414,17.3155655 C127.290858,17.3155655 127.600394,17.2534966 127.909931,17.1914276 C128.219467,17.1293586 128.467096,17.0052207 128.776633,16.8810828 L128.962355,16.8190138 L128.962355,15.2672897 L128.590911,15.4534966 C128.281374,15.5776345 128.033745,15.6397034 127.848023,15.7017724 C127.662302,15.7638414 127.414672,15.7638414 127.167043,15.7638414 C126.609878,15.7638414 126.176527,15.6397034 125.805083,15.3914276 C125.495546,15.1431517 125.309825,14.708669 125.309825,14.0879793 L125.309825,7.75694483 L129.024262,7.75694483 Z" id="Fill-9" fill="#FFFFFF"></path>
        <path d="M32.5727058,17.5017724 C27.9915664,17.5017724 24.5866655,14.0259103 24.5866655,9.61901379 L24.5866655,9.55694483 C24.5866655,5.21211724 27.9296591,1.67418621 32.6965204,1.67418621 C35.6061629,1.67418621 37.4014743,2.60522069 38.825342,4.0328069 L36.6585868,6.51556552 C35.4823484,5.4603931 34.2442026,4.77763448 32.6965204,4.77763448 C30.0964142,4.77763448 28.1772883,6.88797931 28.1772883,9.55694483 L28.1772883,9.61901379 C28.1772883,12.2259103 30.0345069,14.3983241 32.6965204,14.3983241 C34.4918317,14.3983241 35.5442556,13.7155655 36.7824014,12.5983241 L38.9491565,14.7707379 C37.339567,16.4466 35.5442556,17.5017724 32.5727058,17.5017724" id="Fill-11" fill="#FFFFFF"></path>
        <path d="M47.182826,17.2534966 L47.182826,16.0121172 C46.3780312,16.8810828 45.2017927,17.5017724 43.5922032,17.5017724 C41.3635408,17.5017724 39.5063221,16.2603931 39.5063221,13.9017724 L39.5063221,13.8397034 C39.5063221,11.2948759 41.4873554,10.1155655 44.3350907,10.1155655 C45.5113292,10.1155655 46.3780312,10.3017724 47.2447332,10.6121172 L47.2447332,10.4259103 C47.2447332,9.0603931 46.3780312,8.31556552 44.7065344,8.31556552 C43.4064813,8.31556552 42.477872,8.56384138 41.4254481,8.93625517 L40.558746,6.39142759 C41.8587991,5.8328069 43.1588522,5.4603931 45.2017927,5.4603931 C48.91623,5.4603931 50.5258196,7.32246207 50.5258196,10.4879793 L50.5258196,17.2534966 L47.182826,17.2534966 L47.182826,17.2534966 Z M47.2447332,12.5362552 C46.6875676,12.2879793 45.8827729,12.1017724 45.0779781,12.1017724 C43.6541105,12.1017724 42.7255012,12.6603931 42.7255012,13.7155655 L42.7255012,13.7776345 C42.7255012,14.6466 43.4683886,15.2052207 44.5827198,15.2052207 C46.1923093,15.2052207 47.2447332,14.3362552 47.2447332,13.1569448 L47.2447332,12.5362552 Z" id="Fill-13" fill="#FFFFFF"></path>
        <path d="M58.8213963,8.81211724 C56.5927339,8.81211724 55.1688662,10.1155655 55.1688662,12.908669 L55.1688662,17.2534966 L51.7639653,17.2534966 L51.7639653,5.58453103 L55.1688662,5.58453103 L55.1688662,7.94315172 C55.8498464,6.32935862 56.9641776,5.27418621 58.9452109,5.39832414 L58.9452109,8.81211724 L58.8213963,8.81211724 Z" id="Fill-15" fill="#FFFFFF"></path>
        <path d="M70.8933176,12.5362552 L62.5977409,12.5362552 C62.9072773,14.0259103 64.0216085,14.8328069 65.5073835,14.8328069 C66.6217147,14.8328069 67.4884167,14.4603931 68.4170261,13.6534966 L70.336152,15.3293586 C69.2218208,16.6948759 67.6122313,17.5017724 65.4454762,17.5017724 C61.8548534,17.5017724 59.19284,15.0190138 59.19284,11.4810828 L59.19284,11.4190138 C59.19284,8.06728966 61.6072243,5.33625517 65.0740325,5.33625517 C69.0360989,5.33625517 70.8933176,8.37763448 70.8933176,11.6672897 L70.8933176,11.7293586 C70.9552249,12.0397034 70.9552249,12.2259103 70.8933176,12.5362552 M65.1359397,8.00522069 C63.7120721,8.00522069 62.8453701,8.99832414 62.5358336,10.4879793 L67.6122313,10.4879793 C67.4265094,8.99832414 66.5598074,8.00522069 65.1359397,8.00522069" id="Fill-17" fill="#FFFFFF"></path>
        <path d="M129.086169,3.97073793 C128.962355,3.97073793 128.776633,3.97073793 128.652818,3.90866897 L128.652818,3.47418621 C128.776633,3.53625517 128.962355,3.53625517 129.086169,3.53625517 C129.271891,3.53625517 129.395706,3.47418621 129.395706,3.28797931 C129.395706,2.91556552 128.529004,3.10177241 128.529004,2.41901379 C128.529004,2.0466 128.83854,1.73625517 129.395706,1.73625517 C129.51952,1.73625517 129.643335,1.73625517 129.767149,1.79832414 L129.767149,2.2328069 C129.643335,2.17073793 129.51952,2.17073793 129.395706,2.17073793 C129.209984,2.17073793 129.086169,2.2328069 129.086169,2.35694483 C129.086169,2.66728966 129.952871,2.54315172 129.952871,3.22591034 C129.952871,3.6603931 129.643335,3.97073793 129.086169,3.97073793" id="Fill-19" fill="#FFFFFF"></path>
        <g id="Group-23" transform="translate(130.005307, 1.363841)">
            <mask id="mask-4" fill="white">
                <use xlink:href="#path-3"></use>
            </mask>
            <g id="Clip-22"></g>
            <path d="M2.23813422,2.60689655 L2.11431964,1.73793103 C2.11431964,1.55172414 2.05241235,1.42758621 2.05241235,1.24137931 C1.99050506,1.36551724 1.99050506,1.55172414 1.92859777,1.73793103 L1.68096862,2.60689655 L1.1857103,2.60689655 L0.938081149,1.8 C0.87617386,1.6137931 0.814266571,1.42758621 0.814266571,1.24137931 C0.814266571,1.42758621 0.752359282,1.6137931 0.752359282,1.8 L0.628544704,2.60689655 L0.133286393,2.60689655 L0.442822838,0.496551724 L0.999988438,0.496551724 L1.30952488,1.42758621 C1.37143217,1.55172414 1.37143217,1.73793103 1.43333946,1.86206897 C1.49524675,1.67586207 1.49524675,1.55172414 1.55715404,1.42758621 L1.86669048,0.496551724 L2.42385608,0.496551724 L2.79529982,2.60689655 L2.23813422,2.60689655 Z" id="Fill-21" fill="#FFFFFF" mask="url(#mask-4)"></path>
        </g>
    </g>
</svg>